<svg width="517" height="517" viewBox="0 0 517 517" fill="none" xmlns="http://www.w3.org/2000/svg">
<path d="M490.04 65.4837L409.7 149.794C392.72 167.334 373.49 161.664 362.18 178.074C346.34 200.704 333.89 208.064 308.99 211.454C311.82 216.544 317.48 218.814 324.27 218.244C333.89 217.684 345.77 211.454 356.51 200.704L358.21 201.834C349.15 213.144 336.71 221.064 323.13 221.064C324.26 226.154 330.48 228.424 336.71 227.854C348.02 226.724 354.25 219.374 365.56 202.394L367.25 203.524C358.77 220.504 353.67 226.724 340.67 230.684C344.06 234.644 350.85 236.344 357.08 234.084C363.87 231.814 367.26 223.334 371.22 206.924C385.93 226.154 368.39 255.014 327.1 275.944C301.08 206.924 234.31 161.094 160.2 161.094C127.38 161.094 100.22 167.884 90.04 178.634C97.96 188.814 116.06 193.904 144.35 193.904C163.02 193.904 195.83 190.514 215.07 187.684L215.63 191.644C178.3 197.304 157.93 203.514 147.18 213.704C156.24 221.624 168.68 225.014 191.31 225.014C207.72 225.014 234.3 219.924 256.93 213.704L258.06 217.664C223.54 226.144 207.14 232.934 195.83 244.244C203.18 251.034 216.2 254.434 232.6 254.434C244.48 254.434 260.89 252.164 288.05 245.954L289.18 249.914C259.2 257.264 242.22 265.744 232.6 278.194C238.83 282.154 245.05 283.864 255.23 283.864C264.28 283.864 278.99 281.594 292 278.194L292.56 281.594C275.59 286.684 267.1 294.044 262.01 304.794C246.73 317.814 189.03 327.994 128.49 326.854C93.98 326.294 77.01 324.024 54.94 317.804C52.67 333.634 61.73 346.084 82.1 348.354C110.39 351.184 141.51 347.224 177.72 336.474L178.84 338.744C147.72 351.194 118.87 355.724 90.02 355.724C69.08 355.724 57.77 352.884 42.5 347.804C40.23 365.344 49.85 377.214 67.39 379.484C97.95 383.444 136.41 371.004 190.73 340.444L191.86 341.574C143.77 374.384 105.86 389.094 67.39 389.094C49.85 389.094 34.01 385.704 21 379.474C21 399.844 30.62 410.034 51.55 412.854C88.89 417.944 130.76 400.404 182.81 357.404L183.94 358.534C142.64 402.094 105.86 422.464 68.53 422.464C51.55 422.464 45.9 421.894 33.45 417.944C31.76 437.744 47.03 450.754 70.22 450.754C102.47 450.754 129.63 433.774 175.45 385.124C202.03 356.834 237.68 341.564 281.25 338.734C285.77 343.254 294.83 344.394 314.06 343.824L314.63 347.784C291.43 349.474 278.42 355.704 267.67 369.284C276.15 373.244 297.65 374.944 324.81 371.544L325.37 374.944C284.64 378.904 256.36 389.084 242.78 404.924C249 407.194 257.48 408.314 269.36 408.314C281.24 408.314 293.69 407.194 306.7 404.924L307.26 408.884C255.78 416.234 221.27 427.554 202.03 451.884C209.39 454.144 217.31 455.274 225.8 455.274C289.73 455.274 340.08 406.614 340.08 343.254C340.08 330.804 337.82 318.924 335.56 311.014C380.26 275.934 401.76 232.374 392.7 195.034L492.86 68.3137C497.95 62.0937 495.69 59.2637 490.03 65.4837H490.04ZM86.58 344.924C86.58 343.214 80.31 336.944 78.6 336.944C80.3 336.944 86.58 330.684 86.58 328.964C86.58 330.674 92.84 336.944 94.56 336.944C92.85 336.944 86.58 343.204 86.58 344.924ZM71.24 373.984C67.69 369.664 64.14 368.584 64.14 364.884C64.14 362.314 65.9 360.874 68.01 360.874C69.11 360.874 70.44 361.284 71.24 361.994C72.04 361.284 73.37 360.874 74.47 360.874C76.58 360.874 78.34 362.314 78.34 364.884C78.34 368.584 74.79 369.674 71.24 373.984ZM58.71 404.914C57.72 404.914 56.83 404.694 56.11 404.054C56.11 405.484 57.69 406.584 59.37 406.904H52.22C53.89 406.594 55.48 405.494 55.48 404.054C54.76 404.704 53.86 404.914 52.87 404.914C50.96 404.914 49.37 403.614 49.37 401.294C49.37 397.944 52.58 396.954 55.8 393.054C59.01 396.954 62.22 397.944 62.22 401.294C62.22 403.614 60.63 404.914 58.72 404.914H58.71ZM74 440.954C73.06 440.954 72.21 440.604 71.57 440.024C71.57 441.454 73.16 442.564 74.84 442.884H67.67C69.34 442.574 70.94 441.464 70.94 440.024C70.29 440.604 69.44 440.954 68.51 440.954C66.48 440.954 64.83 439.304 64.83 437.274C64.83 435.514 66.07 434.044 67.72 433.674C67.63 433.364 67.58 433.044 67.58 432.714C67.58 430.684 69.23 429.034 71.26 429.034C73.29 429.034 74.94 430.684 74.94 432.714C74.94 433.054 74.89 433.374 74.8 433.674C76.46 434.044 77.69 435.514 77.69 437.274C77.69 439.304 76.04 440.954 74.01 440.954H74ZM284.1 323.474L280.7 313.854C342.37 294.044 377.45 262.934 385.37 223.334H386.5C378.58 266.894 346.33 299.144 284.09 323.474H284.1ZM383.67 188.264C378.59 188.264 375.19 184.864 375.19 179.784C375.19 175.254 378.59 172.424 383.67 172.424C387.63 172.424 391.03 175.254 391.03 179.784C391.03 184.864 387.63 188.264 383.67 188.264Z" fill="#BB9A65"/>
</svg>
